<svg width="18.000000" height="24.000000" viewBox="0 0 18 24" fill="none" xmlns="http://www.w3.org/2000/svg" xmlns:xlink="http://www.w3.org/1999/xlink">
	<desc>
			Created with Pixso.
	</desc>
	<defs>
		<clipPath id="clip297083_8311">
			<rect id="email-black-18dp 1" rx="0.000000" width="17.000000" height="23.000000" transform="translate(0.500000 0.500000)" fill="white" fill-opacity="0"/>
		</clipPath>
	</defs>
	<rect id="email-black-18dp 1" rx="0.000000" width="17.000000" height="23.000000" transform="translate(0.500000 0.500000)" fill="#FFFFFF" fill-opacity="0"/>
	<g clip-path="url(#clip297083_8311)">
		<path id="Vector" d="M15 6L3 6C2.17 6 1.5 6.67 1.5 7.5L1.5 16.5C1.5 17.32 2.17 18 3 18L15 18C15.82 18 16.5 17.32 16.5 16.5L16.5 7.5C16.5 6.67 15.82 6 15 6ZM14.7 9.18L9.39 12.5C9.15 12.65 8.84 12.65 8.6 12.5L3.3 9.18C3.11 9.06 3 8.86 3 8.64C3 8.14 3.54 7.84 3.97 8.1L9 11.25L14.02 8.1C14.45 7.84 15 8.14 15 8.64C15 8.86 14.88 9.06 14.7 9.18Z" fill="#2E2F42" fill-opacity="1.000000" fill-rule="nonzero"/>
	</g>
</svg>
