<svg width="18.000000" height="24.000000" viewBox="0 0 18 24" fill="none" xmlns="http://www.w3.org/2000/svg" xmlns:xlink="http://www.w3.org/1999/xlink">
	<desc>
			Created with Pixso.
	</desc>
	<defs>
		<clipPath id="clip297083_8305">
			<rect id="phone-black-18dp 1" rx="0.000000" width="17.000000" height="23.000000" transform="translate(0.500000 0.500000)" fill="white" fill-opacity="0"/>
		</clipPath>
	</defs>
	<rect id="phone-black-18dp 1" rx="0.000000" width="17.000000" height="23.000000" transform="translate(0.500000 0.500000)" fill="#FFFFFF" fill-opacity="0"/>
	<g clip-path="url(#clip297083_8305)">
		<path id="Vector" d="M14.72 13.86L12.88 13.65C12.44 13.6 12.01 13.75 11.7 14.06L10.36 15.39C8.32 14.35 6.64 12.68 5.6 10.63L6.93 9.29C7.25 8.98 7.4 8.54 7.35 8.1L7.14 6.28C7.05 5.54 6.44 5 5.7 5L4.45 5C3.63 5 2.95 5.68 3 6.49C3.38 12.67 8.32 17.61 14.5 17.99C15.31 18.04 15.99 17.36 15.99 16.54L15.99 15.29C16 14.56 15.45 13.95 14.72 13.86Z" fill="#2E2F42" fill-opacity="1.000000" fill-rule="nonzero"/>
	</g>
</svg>
