<svg width="9.510498" height="6.985474" viewBox="0 0 9.5105 6.98547" fill="none" xmlns="http://www.w3.org/2000/svg" xmlns:xlink="http://www.w3.org/1999/xlink">
	<desc>
			Created with Pixso.
	</desc>
	<defs/>
	<path id="Vector" d="M8.03 0.22C8.19 0.07 8.41 -0.01 8.64 0C8.86 0 9.08 0.08 9.24 0.23C9.41 0.37 9.5 0.57 9.51 0.78C9.51 0.99 9.43 1.19 9.28 1.35L4.62 6.72C4.54 6.8 4.44 6.87 4.34 6.91C4.23 6.95 4.11 6.98 4 6.98C3.88 6.98 3.76 6.96 3.65 6.92C3.54 6.88 3.44 6.82 3.36 6.74L0.27 3.89C0.19 3.82 0.12 3.73 0.07 3.63C0.02 3.53 0 3.43 0 3.32C-0.01 3.21 0.01 3.1 0.06 3C0.1 2.9 0.17 2.81 0.25 2.73C0.33 2.66 0.43 2.6 0.54 2.55C0.65 2.51 0.77 2.49 0.89 2.5C1 2.5 1.12 2.52 1.23 2.57C1.33 2.61 1.43 2.67 1.51 2.75L3.95 5.01L8.01 0.24C8.01 0.23 8.02 0.23 8.03 0.22L8.03 0.22Z" fill="#F4F4FD" fill-opacity="1.000000" fill-rule="nonzero"/>
</svg>
